<?xml version="1.0" encoding="UTF-8" standalone="no"?>
<!-- Created with Inkscape (http://www.inkscape.org/) -->

<svg
   width="270.93332mm"
   height="270.93332mm"
   viewBox="0 0 270.93332 270.93332"
   version="1.1"
   id="svg1"
   xml:space="preserve"
   inkscape:version="1.4 (e7c3feb100, 2024-10-09)"
   sodipodi:docname="logo_1024.svg"
   xmlns:inkscape="http://www.inkscape.org/namespaces/inkscape"
   xmlns:sodipodi="http://sodipodi.sourceforge.net/DTD/sodipodi-0.dtd"
   xmlns="http://www.w3.org/2000/svg"
   xmlns:svg="http://www.w3.org/2000/svg"><sodipodi:namedview
     id="namedview1"
     pagecolor="#ffffff"
     bordercolor="#000000"
     borderopacity="0.25"
     inkscape:showpageshadow="2"
     inkscape:pageopacity="0.0"
     inkscape:pagecheckerboard="0"
     inkscape:deskcolor="#d1d1d1"
     inkscape:document-units="mm"
     inkscape:zoom="0.55853456"
     inkscape:cx="633.80143"
     inkscape:cy="559.49985"
     inkscape:window-width="1524"
     inkscape:window-height="820"
     inkscape:window-x="0"
     inkscape:window-y="0"
     inkscape:window-maximized="1"
     inkscape:current-layer="layer1"
     showgrid="false" /><defs
     id="defs1" /><g
     inkscape:label="Layer 1"
     inkscape:groupmode="layer"
     id="layer1"
     transform="translate(0,-50.695652)"><path
       style="fill:#51abdd;stroke:none;stroke-width:1.37576"
       d="m 137.25506,115.04573 -7.28008,-6.55205 c -2.56884,5.5176 -3.86902,12.67442 -0.728,18.20019 l -9.46412,-3.64004 c -0.89974,7.15701 3.66616,14.73096 10.19212,17.83618 v 0.3641 c -11.01802,-0.86953 -20.88009,-0.64439 -31.304348,3.64396 -13.375319,5.50251 -25.613039,15.62913 -40.404429,17.04246 -8.614265,0.82307 -15.192434,-2.94579 -22.932246,-5.76233 8.213429,14.80865 17.839902,32.41211 18.200196,49.86849 -4.324546,-1.21561 -10.037184,-3.54704 -14.560154,-2.7935 -3.721938,0.62021 -7.830629,4.22562 -11.648127,3.75015 -3.114645,-0.38783 -5.183229,-4.12861 -8.008084,-5.32469 l -0.364001,0.3641 2.184023,4.73203 c -4.077214,-1.17449 -7.182701,-3.8794 -8.372088,-8.00806 -2.625503,1.53381 -0.98954,4.649 0.364001,6.55205 l -9.1000939,-6.91614 c 0.47765,8.83152 16.4571499,13.46111 23.6602479,12.0832 3.353163,-0.64147 8.060729,-3.14831 11.438596,-2.58658 4.233872,0.70406 7.811408,5.04659 11.857651,6.51951 v 0.3641 c -3.581622,0.97772 -8.411574,2.36037 -10.689241,5.46146 -1.844893,2.5118 -3.27503,8.86363 -6.433546,9.88766 -2.303392,0.74675 -5.129539,-1.62981 -7.265472,-2.24503 0.251658,2.25908 1.732059,3.54765 3.276035,5.09607 -4.056628,0.93158 -6.806076,-2.39512 -10.192105,-4.00405 0.265319,2.44285 1.790643,4.42503 4.004042,5.46006 v 0.36409 c -4.777801,-0.0137 -5.444711,-3.12612 -9.100095,-5.09604 0.218297,10.24706 14.954982,10.11934 20.685021,4.32985 2.949583,-2.98016 4.676396,-8.79686 8.449609,-10.76758 3.964761,-2.0708 9.544766,-0.5529 13.817824,-1.57041 6.476748,19.02706 22.462154,41.42157 42.588444,47.16487 11.81674,3.3721 25.66409,1.61177 37.85642,1.61177 9.83496,0 23.4611,2.4532 32.39636,-2.30177 9.08865,-4.83654 14.30544,-14.3701 20.07162,-22.45055 2.73662,-3.83494 6.42797,-9.50211 11.23272,-10.91534 3.5988,-1.0586 6.57477,7.32574 8.75069,9.42532 4.68886,4.52441 12.62566,5.16522 18.54959,2.94603 l 2.91202,12.37612 h 0.36399 c 1.60066,-3.84471 3.60465,-7.37281 3.64004,-11.64812 h 0.36402 c 1.79392,4.30774 4.94057,9.1801 9.4641,10.92012 -0.98979,-4.31737 -2.79383,-8.95995 -2.10652,-13.46814 0.44946,-2.94739 2.29462,-5.79891 3.02551,-8.73608 1.87928,-7.552 1.42285,-16.33711 -3.01175,-22.93228 -4.61728,-6.867 -12.81566,-9.35448 -18.65547,-14.93857 -13.54784,-12.95456 -25.55797,-27.57157 -40.40444,-39.1436 -3.9002,-3.04004 -7.99633,-5.93023 -12.37611,-8.24237 -2.28469,-1.2061 -5.70866,-1.90719 -7.35703,-3.96359 -3.13594,-3.91217 -5.01314,-9.81794 -6.59617,-14.52083 -3.86655,-11.4867 -6.78699,-24.22479 -6.79501,-36.400383 -8.41413,2.423758 -14.19616,10.047513 -14.19616,18.564183 m 125.63697,152.05953 c -2.65564,1.21055 1.64624,2.70034 3.1648,2.00822 2.65558,-1.21055 -1.64624,-2.70034 -3.1648,-2.00822 m -23.33053,0.66799 c -2.97448,0.89473 0.19624,3.0577 2.15537,2.49244 3.16038,-0.91169 -0.14161,-3.09851 -2.15537,-2.49244 m 6.22233,1.15222 c -2.65562,1.21055 1.64627,2.70031 3.16483,2.00821 2.65556,-1.21055 -1.64628,-2.70034 -3.16483,-2.00821 m -16.74417,1.09201 c -2.66335,1.21506 1.67159,2.72079 3.16481,2.05861 2.6952,-1.19544 -1.56791,-2.78695 -3.16481,-2.05861 m 27.6643,0.3641 c -2.65563,1.21055 1.64627,2.70034 3.16481,2.00822 2.65558,-1.21056 -1.64627,-2.70035 -3.16481,-2.00822 m -19.95312,3.37963 c -2.22885,1.55661 2.41793,2.66942 3.75861,1.74648 2.1458,-1.47732 -2.47472,-2.64306 -3.75861,-1.74648 z"
       id="path1" /></g></svg>
