<?xml version="1.0" encoding="UTF-8" standalone="no"?>
<!-- Created with Inkscape (http://www.inkscape.org/) -->

<svg
   width="10.583333mm"
   height="10.583333mm"
   viewBox="0 0 10.583333 10.583333"
   version="1.1"
   id="svg1"
   xml:space="preserve"
   inkscape:version="1.4 (e7c3feb100, 2024-10-09)"
   sodipodi:docname="logo.svg"
   xmlns:inkscape="http://www.inkscape.org/namespaces/inkscape"
   xmlns:sodipodi="http://sodipodi.sourceforge.net/DTD/sodipodi-0.dtd"
   xmlns="http://www.w3.org/2000/svg"
   xmlns:svg="http://www.w3.org/2000/svg"><sodipodi:namedview
     id="namedview1"
     pagecolor="#ffffff"
     bordercolor="#000000"
     borderopacity="0.25"
     inkscape:showpageshadow="2"
     inkscape:pageopacity="0.0"
     inkscape:pagecheckerboard="0"
     inkscape:deskcolor="#d1d1d1"
     inkscape:document-units="mm"
     inkscape:zoom="8.5559755"
     inkscape:cx="32.375034"
     inkscape:cy="17.706923"
     inkscape:window-width="1524"
     inkscape:window-height="820"
     inkscape:window-x="0"
     inkscape:window-y="0"
     inkscape:window-maximized="1"
     inkscape:current-layer="layer1" /><defs
     id="defs1" /><g
     inkscape:label="Layer 1"
     inkscape:groupmode="layer"
     id="layer1"
     transform="translate(0,-50.695652)"><path
       style="fill:#51abdd;stroke:none;stroke-width:0.05188"
       d="M 5.4190491,53.434663 5.1445169,53.187585 c -0.096871,0.208069 -0.1459009,0.477953 -0.027453,0.68633 L 4.7601716,53.736649 c -0.033929,0.269891 0.138251,0.555505 0.3843453,0.672603 v 0.01373 c -0.41549,-0.03279 -0.7873891,-0.0243 -1.180488,0.137414 -0.5043838,0.2075 -0.9658687,0.589375 -1.5236526,0.642672 C 2.115532,55.234106 1.867469,55.091982 1.5756004,54.98577 1.8853291,55.544205 2.2483438,56.208032 2.2619305,56.866313 2.0988517,56.820472 1.8834279,56.732554 1.7128665,56.76097 1.5725121,56.784358 1.4175732,56.920318 1.2736152,56.902388 1.1561618,56.887763 1.0781554,56.746698 0.97163003,56.701594 l -0.0137265,0.01373 0.0823596,0.178445 c -0.15375197,-0.04429 -0.27085999,-0.146292 -0.31571185,-0.301984 -0.0990078,0.05784 -0.0373156,0.175314 0.0137265,0.247078 l -0.3431649,-0.260808 c 0.0180122,0.333037 0.62059985,0.507619 0.89222895,0.455658 0.1264479,-0.02419 0.3039704,-0.118723 0.4313499,-0.09754 0.1596595,0.02655 0.2945685,0.190307 0.4471525,0.245851 v 0.01373 c -0.1350631,0.03687 -0.3172008,0.08901 -0.4030917,0.205952 -0.069571,0.09472 -0.1235015,0.334248 -0.2426093,0.372864 -0.086861,0.02816 -0.1934351,-0.06146 -0.2739812,-0.08466 0.00949,0.08519 0.065316,0.133782 0.1235394,0.192173 -0.1529756,0.03513 -0.2566574,-0.09032 -0.38434475,-0.150993 0.0100052,0.09212 0.0675252,0.166868 0.15099265,0.205899 v 0.01373 c -0.18017113,-5.18e-4 -0.20532035,-0.117886 -0.34316501,-0.192172 0.008232,0.386417 0.56395301,0.381601 0.78003301,0.163279 0.1112289,-0.112382 0.1763471,-0.33173 0.3186351,-0.406046 0.1495113,-0.07809 0.3599335,-0.02085 0.5210707,-0.05922 0.2442384,0.717511 0.8470487,1.562009 1.606012,1.778589 0.4456093,0.127162 0.9677936,0.06078 1.4275669,0.06078 0.3708768,0 0.884719,0.09251 1.2216678,-0.0868 0.3427335,-0.182386 0.5394588,-0.541897 0.7569018,-0.846611 0.1031978,-0.144616 0.242399,-0.358325 0.4235864,-0.411618 0.1357109,-0.03992 0.2479345,0.276254 0.3299886,0.355429 0.1768173,0.170616 0.4761141,0.194781 0.6995059,0.111095 l 0.1098125,0.466704 h 0.013726 c 0.060361,-0.144984 0.1359314,-0.278029 0.1372661,-0.439251 h 0.013727 c 0.067649,0.162445 0.1863093,0.346182 0.3568918,0.411798 -0.037325,-0.162808 -0.1053554,-0.33788 -0.079437,-0.507884 0.016949,-0.111146 0.08653,-0.218677 0.1140919,-0.329438 0.070868,-0.284786 0.053656,-0.616073 -0.113573,-0.864777 C 9.2565398,56.895621 8.9473789,56.801818 8.7271592,56.591242 8.2162697,56.102725 7.7633671,55.551517 7.2035064,55.115135 7.0564295,55.000495 6.9019642,54.891506 6.7368028,54.804315 6.6506469,54.758833 6.5215289,54.732395 6.4593687,54.654848 6.3411125,54.50732 6.2703232,54.284613 6.2106268,54.107267 c -0.1458075,-0.433164 -0.2559376,-0.913518 -0.25624,-1.37266 -0.317297,0.0914 -0.5353377,0.378892 -0.5353377,0.700056 m 4.7377749,5.734171 c -0.100144,0.04565 0.06208,0.10183 0.119345,0.07573 0.100142,-0.04565 -0.06208,-0.10183 -0.119345,-0.07573 m -0.8797949,0.02519 c -0.1121681,0.03374 0.0074,0.115306 0.081279,0.09399 0.1191781,-0.03438 -0.00534,-0.116845 -0.081279,-0.09399 m 0.2346441,0.04345 c -0.1001436,0.04565 0.062081,0.101829 0.1193458,0.07573 0.1001415,-0.04565 -0.062081,-0.10183 -0.1193458,-0.07573 m -0.6314234,0.04118 c -0.100435,0.04582 0.063036,0.102601 0.1193452,0.07763 0.1016363,-0.04508 -0.059126,-0.105096 -0.1193452,-0.07763 m 1.0432218,0.01373 c -0.1001436,0.04565 0.062081,0.10183 0.1193454,0.07573 0.100142,-0.04565 -0.062081,-0.10183 -0.1193454,-0.07573 M 9.171039,59.41983 c -0.08405,0.0587 0.09118,0.100664 0.1417372,0.06586 0.080918,-0.05571 -0.093322,-0.09967 -0.1417372,-0.06586 z"
       id="path1" /></g></svg>
