<?xml version="1.0" encoding="UTF-8" standalone="no"?>
<!-- Created with Inkscape (http://www.inkscape.org/) -->

<svg
   width="26.458334mm"
   height="26.458334mm"
   viewBox="0 0 26.458334 26.458334"
   version="1.1"
   id="svg1"
   xml:space="preserve"
   inkscape:version="1.4 (e7c3feb100, 2024-10-09)"
   sodipodi:docname="logo_100.svg"
   xmlns:inkscape="http://www.inkscape.org/namespaces/inkscape"
   xmlns:sodipodi="http://sodipodi.sourceforge.net/DTD/sodipodi-0.dtd"
   xmlns="http://www.w3.org/2000/svg"
   xmlns:svg="http://www.w3.org/2000/svg"><sodipodi:namedview
     id="namedview1"
     pagecolor="#ffffff"
     bordercolor="#000000"
     borderopacity="0.25"
     inkscape:showpageshadow="2"
     inkscape:pageopacity="0.0"
     inkscape:pagecheckerboard="0"
     inkscape:deskcolor="#d1d1d1"
     inkscape:document-units="mm"
     inkscape:zoom="4.2779878"
     inkscape:cx="17.999117"
     inkscape:cy="35.180091"
     inkscape:window-width="1524"
     inkscape:window-height="820"
     inkscape:window-x="0"
     inkscape:window-y="0"
     inkscape:window-maximized="1"
     inkscape:current-layer="layer1"
     showgrid="false" /><defs
     id="defs1" /><g
     inkscape:label="Layer 1"
     inkscape:groupmode="layer"
     id="layer1"
     transform="translate(0,-50.695652)"><path
       style="fill:#51abdd;stroke:none;stroke-width:0.133124"
       d="M 13.402219,57.043293 12.69777,56.409291 c -0.248571,0.533905 -0.374382,1.226428 -0.07044,1.761123 l -0.915786,-0.352225 c -0.08706,0.692541 0.354753,1.425427 0.986231,1.7259 v 0.03523 c -1.066148,-0.08414 -2.020441,-0.06235 -3.0291333,0.352605 -1.2942492,0.532445 -2.4784197,1.512336 -3.9096936,1.649097 -0.8335507,0.07964 -1.4700805,-0.285047 -2.2190155,-0.557587 0.794764,1.432944 1.72626,3.136325 1.7611235,4.825474 C 4.8825907,65.731281 4.3298131,65.505684 3.8921525,65.578599 3.532003,65.638613 3.1344297,65.987486 2.7650333,65.941478 2.4636478,65.90395 2.2634834,65.541977 1.9901392,65.42624 l -0.035222,0.03523 0.2113348,0.45789 C 1.7717243,65.805713 1.471225,65.543976 1.3561351,65.14447 1.102081,65.292888 1.2603831,65.594326 1.3913571,65.778473 L 0.51079591,65.109239 c 0.0462193,0.854573 1.59245949,1.302551 2.28945999,1.169219 0.3244654,-0.06207 0.7799882,-0.304643 1.1068441,-0.250288 0.4096864,0.06813 0.755863,0.488328 1.1473936,0.630854 v 0.03523 c -0.346572,0.09461 -0.8139374,0.2284 -1.0343336,0.528473 -0.1785192,0.243052 -0.3169049,0.857681 -0.6225356,0.956769 -0.2228854,0.07226 -0.4963546,-0.157706 -0.7030359,-0.217237 0.024351,0.218597 0.1676009,0.343285 0.3170022,0.493116 -0.3925355,0.09014 -0.6585831,-0.231761 -0.9862288,-0.387448 0.025673,0.23638 0.1732697,0.428183 0.3874471,0.528337 v 0.03523 c -0.4623191,-0.0013 -0.526852,-0.302496 -0.8805615,-0.493114 0.021123,0.991547 1.4471037,0.979189 2.0015651,0.418974 0.2854134,-0.288372 0.4525068,-0.851219 0.8176179,-1.041914 0.3836461,-0.200379 0.9235896,-0.0535 1.3370677,-0.151958 0.6267159,1.841133 2.1735276,4.008116 4.1210279,4.56386 1.1434339,0.326298 2.4833589,0.155962 3.6631379,0.155962 0.95167,0 2.270189,0.23738 3.1348,-0.222729 0.879455,-0.468003 1.384252,-1.390508 1.942211,-2.172405 0.264805,-0.371084 0.621996,-0.919462 1.086923,-1.056212 0.348234,-0.102434 0.6362,0.708868 0.846751,0.912031 0.453713,0.437801 1.221709,0.499809 1.794932,0.28507 l 0.281779,1.197563 h 0.03522 c 0.154886,-0.372029 0.3488,-0.713423 0.352225,-1.127118 h 0.03522 c 0.173588,0.416834 0.47807,0.888303 0.915785,1.056674 -0.09578,-0.417766 -0.270342,-0.867001 -0.203835,-1.303231 0.04349,-0.285201 0.222036,-0.561125 0.29276,-0.845338 0.181847,-0.730761 0.137681,-1.580844 -0.291429,-2.219019 -0.446783,-0.664476 -1.24009,-0.905175 -1.805174,-1.445513 -1.310943,-1.253535 -2.473091,-2.667935 -3.909694,-3.787692 -0.377399,-0.294166 -0.773757,-0.573832 -1.197562,-0.797564 -0.221076,-0.116707 -0.552393,-0.184547 -0.711896,-0.383532 -0.303445,-0.378557 -0.485091,-0.950024 -0.638272,-1.405094 -0.374142,-1.111499 -0.656736,-2.344087 -0.657512,-3.522246 -0.814184,0.234532 -1.373677,0.972237 -1.373677,1.796344 M 25.559353,71.75718 c -0.25697,0.117138 0.159297,0.261296 0.306239,0.194323 0.256965,-0.117138 -0.159297,-0.261296 -0.306239,-0.194323 m -2.257554,0.06464 c -0.287824,0.08658 0.01899,0.295876 0.208562,0.241179 0.305811,-0.08822 -0.0137,-0.299825 -0.208562,-0.241179 m 0.602097,0.111493 c -0.256969,0.117138 0.1593,0.261293 0.306241,0.194323 0.256963,-0.117138 -0.1593,-0.261296 -0.306241,-0.194323 m -1.620233,0.105668 c -0.257716,0.117574 0.16175,0.263274 0.30624,0.199199 0.260798,-0.115676 -0.151718,-0.269677 -0.30624,-0.199199 m 2.676908,0.03523 c -0.256969,0.117138 0.1593,0.261296 0.30624,0.194323 0.256964,-0.117138 -0.1593,-0.261295 -0.30624,-0.194323 m -1.930743,0.327027 c -0.215672,0.150624 0.233968,0.258304 0.363698,0.168997 0.207635,-0.142952 -0.239464,-0.255754 -0.363698,-0.168997 z"
       id="path1" /></g></svg>
